<svg xmlns="http://www.w3.org/2000/svg" role="img" aria-label="전방 ToF 2개 · I²C 채널 분리" viewBox="0 0 2480 1250" style="font-family:Segoe UI,Malgun Gothic,sans-serif"><style>.wire-hit{stroke:transparent;stroke-width:20;fill:none}.wire-line{fill:none;stroke-width:3.2;stroke-linejoin:round;stroke-linecap:round}.wire-id{display:none}</style><rect width="2480" height="1250" fill="#f0f3ef"/><defs><pattern id="grid-dots" width="20" height="20" patternUnits="userSpaceOnUse"><circle cx="1" cy="1" r=".7" fill="#cad6ce"/></pattern><marker id="arrow" viewBox="0 0 10 10" refX="9" refY="5" markerWidth="6" markerHeight="6" orient="auto-start-reverse"><path d="M0 0 L10 5 L0 10Z" fill="#648776"/></marker></defs><rect width="100%" height="100%" fill="url(#grid-dots)"/><text x="55" y="52" fill="#52725f" font-size="19" font-weight="600" text-anchor="start">SMART CART / D4</text><text x="55" y="88" fill="#223e30" font-size="29" font-weight="600" text-anchor="start">전방 ToF 2개 · I²C 채널 분리</text><text x="2430" y="52" fill="#a47740" font-size="18" font-weight="600" text-anchor="end">ENGINEERING HOLD</text><text x="2430" y="82" fill="#68796d" font-size="17" font-weight="400" text-anchor="end">기능 단자도 · 실물 커넥터 핀 순서 아님</text><line x1="50" y1="108" x2="2430" y2="108" stroke="#bbcabf"/><g class="wire" data-wire="W077" data-kind="logic" tabindex="0" role="button" aria-label="W077 U1:3V3_OUT to X3:3V3_IN"><title>W077 | U1:3V3_OUT → X3:3V3_IN | 3V3</title><path class="wire-hit" d="M420 277L466 277L466 280L460 280L460 780L466 780L466 777L420 777"/><path class="wire-line" d="M420 277L466 277L466 280L460 280L460 780L466 780L466 777L420 777" stroke="#36866d" /><text class="wire-id" x="466" y="773" fill="#36866d" font-size="15" font-family="monospace" paint-order="stroke" stroke="#f0f3ef" stroke-width="4">W077</text></g><g class="wire" data-wire="W078" data-kind="return" tabindex="0" role="button" aria-label="W078 U1:GND_VERIFIED to X3:0V_IN"><title>W078 | U1:GND_VERIFIED → X3:0V_IN | 0V</title><path class="wire-hit" d="M420 306L466 306L466 300L440 300L440 800L466 800L466 806L420 806"/><path class="wire-line" d="M420 306L466 306L466 300L440 300L440 800L466 800L466 806L420 806" stroke="#6f7d8a" stroke-dasharray="8 5"/><text class="wire-id" x="446" y="793" fill="#6f7d8a" font-size="15" font-family="monospace" paint-order="stroke" stroke="#f0f3ef" stroke-width="4">W078</text></g><g class="wire" data-wire="W081" data-kind="logic" tabindex="0" role="button" aria-label="W081 X3:3V3_MUX to MUX1:VCC"><title>W081 | X3:3V3_MUX → MUX1:VCC | 3V3</title><path class="wire-hit" d="M420 835L466 835L466 840L1320 840L1320 320L1940 320L1940 280L1944 280L1944 277L1990 277"/><path class="wire-line" d="M420 835L466 835L466 840L1320 840L1320 320L1940 320L1940 280L1944 280L1944 277L1990 277" stroke="#36866d" /><text class="wire-id" x="1946" y="313" fill="#36866d" font-size="15" font-family="monospace" paint-order="stroke" stroke="#f0f3ef" stroke-width="4">W081</text></g><g class="wire" data-wire="W082" data-kind="return" tabindex="0" role="button" aria-label="W082 X3:0V_MUX to MUX1:GND"><title>W082 | X3:0V_MUX → MUX1:GND | 0V</title><path class="wire-hit" d="M420 864L466 864L466 860L1940 860L1940 300L1944 300L1944 306L1990 306"/><path class="wire-line" d="M420 864L466 864L466 860L1940 860L1940 300L1944 300L1944 306L1990 306" stroke="#6f7d8a" stroke-dasharray="8 5"/><text class="wire-id" x="1946" y="293" fill="#6f7d8a" font-size="15" font-family="monospace" paint-order="stroke" stroke="#f0f3ef" stroke-width="4">W082</text></g><g class="wire" data-wire="W083" data-kind="logic" tabindex="0" role="button" aria-label="W083 X3:3V3_T1 to TOF1:VIN"><title>W083 | X3:3V3_T1 → TOF1:VIN | 3V3</title><path class="wire-hit" d="M420 893L466 893L466 900L460 900L460 880L440 880L440 820L1300 820L1300 780L1304 780L1304 777L1350 777"/><path class="wire-line" d="M420 893L466 893L466 900L460 900L460 880L440 880L440 820L1300 820L1300 780L1304 780L1304 777L1350 777" stroke="#36866d" /><text class="wire-id" x="446" y="813" fill="#36866d" font-size="15" font-family="monospace" paint-order="stroke" stroke="#f0f3ef" stroke-width="4">W083</text></g><g class="wire" data-wire="W084" data-kind="return" tabindex="0" role="button" aria-label="W084 X3:0V_T1 to TOF1:GND"><title>W084 | X3:0V_T1 → TOF1:GND | 0V</title><path class="wire-hit" d="M420 922L466 922L466 920L1300 920L1300 800L1304 800L1304 806L1350 806"/><path class="wire-line" d="M420 922L466 922L466 920L1300 920L1300 800L1304 800L1304 806L1350 806" stroke="#6f7d8a" stroke-dasharray="8 5"/><text class="wire-id" x="1306" y="793" fill="#6f7d8a" font-size="15" font-family="monospace" paint-order="stroke" stroke="#f0f3ef" stroke-width="4">W084</text></g><g class="wire" data-wire="W085" data-kind="logic" tabindex="0" role="button" aria-label="W085 X3:3V3_T2 to TOF2:VIN"><title>W085 | X3:3V3_T2 → TOF2:VIN | 3V3</title><path class="wire-hit" d="M420 951L466 951L466 960L1920 960L1920 780L1944 780L1944 777L1990 777"/><path class="wire-line" d="M420 951L466 951L466 960L1920 960L1920 780L1944 780L1944 777L1990 777" stroke="#36866d" /><text class="wire-id" x="1926" y="773" fill="#36866d" font-size="15" font-family="monospace" paint-order="stroke" stroke="#f0f3ef" stroke-width="4">W085</text></g><g class="wire" data-wire="W086" data-kind="return" tabindex="0" role="button" aria-label="W086 X3:0V_T2 to TOF2:GND"><title>W086 | X3:0V_T2 → TOF2:GND | 0V</title><path class="wire-hit" d="M420 980L1960 980L1960 800L1944 800L1944 806L1990 806"/><path class="wire-line" d="M420 980L1960 980L1960 800L1944 800L1944 806L1990 806" stroke="#6f7d8a" stroke-dasharray="8 5"/><text class="wire-id" x="1950" y="793" fill="#6f7d8a" font-size="15" font-family="monospace" paint-order="stroke" stroke="#f0f3ef" stroke-width="4">W086</text></g><g class="wire" data-wire="W097" data-kind="signal" tabindex="0" role="button" aria-label="W097 U1:GPIO21 to MUX1:SDA"><title>W097 | U1:GPIO21 → MUX1:SDA | SDA</title><path class="wire-hit" d="M420 335L466 335L466 340L1944 340L1944 335L1990 335"/><path class="wire-line" d="M420 335L466 335L466 340L1944 340L1944 335L1990 335" stroke="#647fc5" /><text class="wire-id" x="1950" y="333" fill="#647fc5" font-size="15" font-family="monospace" paint-order="stroke" stroke="#f0f3ef" stroke-width="4">W097</text></g><g class="wire" data-wire="W098" data-kind="signal" tabindex="0" role="button" aria-label="W098 U1:GPIO22 to MUX1:SCL"><title>W098 | U1:GPIO22 → MUX1:SCL | SCL</title><path class="wire-hit" d="M420 364L466 364L466 360L1944 360L1944 364L1990 364"/><path class="wire-line" d="M420 364L466 364L466 360L1944 360L1944 364L1990 364" stroke="#647fc5" /><text class="wire-id" x="1950" y="353" fill="#647fc5" font-size="15" font-family="monospace" paint-order="stroke" stroke="#f0f3ef" stroke-width="4">W098</text></g><g class="wire" data-wire="W099" data-kind="signal" tabindex="0" role="button" aria-label="W099 U1:GPIO33 to MUX1:RESET"><title>W099 | U1:GPIO33 → MUX1:RESET | MUX_RST</title><path class="wire-hit" d="M420 393L466 393L466 400L1920 400L1920 460L1944 460L1944 451L1990 451"/><path class="wire-line" d="M420 393L466 393L466 400L1920 400L1920 460L1944 460L1944 451L1990 451" stroke="#647fc5" /><text class="wire-id" x="1926" y="453" fill="#647fc5" font-size="15" font-family="monospace" paint-order="stroke" stroke="#f0f3ef" stroke-width="4">W099</text></g><g class="wire" data-wire="W102" data-kind="return" tabindex="0" role="button" aria-label="W102 MUX1:GND to MUX1:A0"><title>W102 | MUX1:GND → MUX1:A0 | 0V</title><path class="wire-hit" d="M1990 306L1944 306L1944 300L1960 300L1960 160L2380 160L2380 340L2386 340L2386 335L2340 335"/><path class="wire-line" d="M1990 306L1944 306L1944 300L1960 300L1960 160L2380 160L2380 340L2386 340L2386 335L2340 335" stroke="#6f7d8a" stroke-dasharray="8 5"/><text class="wire-id" x="2386" y="153" fill="#6f7d8a" font-size="15" font-family="monospace" paint-order="stroke" stroke="#f0f3ef" stroke-width="4">W102</text></g><g class="wire" data-wire="W103" data-kind="return" tabindex="0" role="button" aria-label="W103 MUX1:GND to MUX1:A1"><title>W103 | MUX1:GND → MUX1:A1 | 0V</title><path class="wire-hit" d="M1990 306L1944 306L1944 300L1960 300L1960 500L2380 500L2380 360L2386 360L2386 364L2340 364"/><path class="wire-line" d="M1990 306L1944 306L1944 300L1960 300L1960 500L2380 500L2380 360L2386 360L2386 364L2340 364" stroke="#6f7d8a" stroke-dasharray="8 5"/><text class="wire-id" x="2386" y="493" fill="#6f7d8a" font-size="15" font-family="monospace" paint-order="stroke" stroke="#f0f3ef" stroke-width="4">W103</text></g><g class="wire" data-wire="W104" data-kind="return" tabindex="0" role="button" aria-label="W104 MUX1:GND to MUX1:A2"><title>W104 | MUX1:GND → MUX1:A2 | 0V</title><path class="wire-hit" d="M1990 306L1944 306L1944 300L1940 300L1940 140L2360 140L2360 400L2386 400L2386 393L2340 393"/><path class="wire-line" d="M1990 306L1944 306L1944 300L1940 300L1940 140L2360 140L2360 400L2386 400L2386 393L2340 393" stroke="#6f7d8a" stroke-dasharray="8 5"/><text class="wire-id" x="2366" y="133" fill="#6f7d8a" font-size="15" font-family="monospace" paint-order="stroke" stroke="#f0f3ef" stroke-width="4">W104</text></g><g class="wire" data-wire="W105" data-kind="signal" tabindex="0" role="button" aria-label="W105 MUX1:SD0 to TOF1:SDA"><title>W105 | MUX1:SD0 → TOF1:SDA | SDA_T1</title><path class="wire-hit" d="M1990 393L1944 393L1944 400L1900 400L1900 780L1746 780L1746 777L1700 777"/><path class="wire-line" d="M1990 393L1944 393L1944 400L1900 400L1900 780L1746 780L1746 777L1700 777" stroke="#647fc5" /><text class="wire-id" x="1906" y="773" fill="#647fc5" font-size="15" font-family="monospace" paint-order="stroke" stroke="#f0f3ef" stroke-width="4">W105</text></g><g class="wire" data-wire="W106" data-kind="signal" tabindex="0" role="button" aria-label="W106 MUX1:SC0 to TOF1:SCL"><title>W106 | MUX1:SC0 → TOF1:SCL | SCL_T1</title><path class="wire-hit" d="M1990 422L1944 422L1944 420L1740 420L1740 800L1746 800L1746 806L1700 806"/><path class="wire-line" d="M1990 422L1944 422L1944 420L1740 420L1740 800L1746 800L1746 806L1700 806" stroke="#647fc5" /><text class="wire-id" x="1746" y="793" fill="#647fc5" font-size="15" font-family="monospace" paint-order="stroke" stroke="#f0f3ef" stroke-width="4">W106</text></g><g class="wire" data-wire="W107" data-kind="signal" tabindex="0" role="button" aria-label="W107 MUX1:SD1 to TOF2:SDA"><title>W107 | MUX1:SD1 → TOF2:SDA | SDA_T2</title><path class="wire-hit" d="M2340 277L2386 277L2386 280L2400 280L2400 780L2386 780L2386 777L2340 777"/><path class="wire-line" d="M2340 277L2386 277L2386 280L2400 280L2400 780L2386 780L2386 777L2340 777" stroke="#647fc5" /><text class="wire-id" x="2406" y="773" fill="#647fc5" font-size="15" font-family="monospace" paint-order="stroke" stroke="#f0f3ef" stroke-width="4">W107</text></g><g class="wire" data-wire="W108" data-kind="signal" tabindex="0" role="button" aria-label="W108 MUX1:SC1 to TOF2:SCL"><title>W108 | MUX1:SC1 → TOF2:SCL | SCL_T2</title><path class="wire-hit" d="M2340 306L2386 306L2386 300L2420 300L2420 800L2386 800L2386 806L2340 806"/><path class="wire-line" d="M2340 306L2386 306L2386 300L2420 300L2420 800L2386 800L2386 806L2340 806" stroke="#647fc5" /><text class="wire-id" x="2426" y="793" fill="#647fc5" font-size="15" font-family="monospace" paint-order="stroke" stroke="#f0f3ef" stroke-width="4">W108</text></g><g class="wire" data-wire="W109" data-kind="logic" tabindex="0" role="button" aria-label="W109 X3:3V3_IN to RP_SDA:1"><title>W109 | X3:3V3_IN → RP_SDA:1 | 3V3</title><path class="wire-hit" d="M420 777L466 777L466 780L660 780L660 280L664 280L664 277L710 277"/><path class="wire-line" d="M420 777L466 777L466 780L660 780L660 280L664 280L664 277L710 277" stroke="#36866d" /><text class="wire-id" x="666" y="273" fill="#36866d" font-size="15" font-family="monospace" paint-order="stroke" stroke="#f0f3ef" stroke-width="4">W109</text></g><g class="wire" data-wire="W110" data-kind="signal" tabindex="0" role="button" aria-label="W110 RP_SDA:2 to MUX1:SDA"><title>W110 | RP_SDA:2 → MUX1:SDA | SDA</title><path class="wire-hit" d="M1060 277L1106 277L1106 280L1300 280L1300 380L1920 380L1920 340L1944 340L1944 335L1990 335"/><path class="wire-line" d="M1060 277L1106 277L1106 280L1300 280L1300 380L1920 380L1920 340L1944 340L1944 335L1990 335" stroke="#647fc5" /><text class="wire-id" x="1926" y="373" fill="#647fc5" font-size="15" font-family="monospace" paint-order="stroke" stroke="#f0f3ef" stroke-width="4">W110</text></g><g class="wire" data-wire="W111" data-kind="logic" tabindex="0" role="button" aria-label="W111 X3:3V3_IN to RP_SCL:1"><title>W111 | X3:3V3_IN → RP_SCL:1 | 3V3</title><path class="wire-hit" d="M420 777L466 777L466 780L480 780L480 320L1280 320L1280 280L1304 280L1304 277L1350 277"/><path class="wire-line" d="M420 777L466 777L466 780L480 780L480 320L1280 320L1280 280L1304 280L1304 277L1350 277" stroke="#36866d" /><text class="wire-id" x="1286" y="313" fill="#36866d" font-size="15" font-family="monospace" paint-order="stroke" stroke="#f0f3ef" stroke-width="4">W111</text></g><g class="wire" data-wire="W112" data-kind="signal" tabindex="0" role="button" aria-label="W112 RP_SCL:2 to MUX1:SCL"><title>W112 | RP_SCL:2 → MUX1:SCL | SCL</title><path class="wire-hit" d="M1700 277L1746 277L1746 280L1920 280L1920 360L1944 360L1944 364L1990 364"/><path class="wire-line" d="M1700 277L1746 277L1746 280L1920 280L1920 360L1944 360L1944 364L1990 364" stroke="#647fc5" /><text class="wire-id" x="1926" y="353" fill="#647fc5" font-size="15" font-family="monospace" paint-order="stroke" stroke="#f0f3ef" stroke-width="4">W112</text></g><g class="wire" data-wire="W113" data-kind="logic" tabindex="0" role="button" aria-label="W113 X3:3V3_IN to RP_RST:1"><title>W113 | X3:3V3_IN → RP_RST:1 | 3V3</title><path class="wire-hit" d="M420 777L466 777L466 780L460 780L460 800L660 800L660 780L664 780L664 777L710 777"/><path class="wire-line" d="M420 777L466 777L466 780L460 780L460 800L660 800L660 780L664 780L664 777L710 777" stroke="#36866d" /><text class="wire-id" x="666" y="793" fill="#36866d" font-size="15" font-family="monospace" paint-order="stroke" stroke="#f0f3ef" stroke-width="4">W113</text></g><g class="wire" data-wire="W114" data-kind="signal" tabindex="0" role="button" aria-label="W114 RP_RST:2 to MUX1:RESET"><title>W114 | RP_RST:2 → MUX1:RESET | MUX_RST</title><path class="wire-hit" d="M1060 777L1106 777L1106 780L1100 780L1100 460L1944 460L1944 451L1990 451"/><path class="wire-line" d="M1060 777L1106 777L1106 780L1100 780L1100 460L1944 460L1944 451L1990 451" stroke="#647fc5" /><text class="wire-id" x="1106" y="453" fill="#647fc5" font-size="15" font-family="monospace" paint-order="stroke" stroke="#f0f3ef" stroke-width="4">W114</text></g><g class="node" data-node="U1" tabindex="0" role="button" aria-label="U1 ESP32-WROOM-32U 38핀"><rect class="node-body" x="70" y="180" width="350" height="245" rx="7" fill="#fafbf7" stroke="#afc0b2" stroke-width="1.6"/><path d="M70 245H420" stroke="#d6dfd5"/><g transform="translate(83 193)" fill="none" stroke="#5e7868" stroke-width="2.4"><rect x="2" y="5" width="28" height="25" rx="2"/><rect x="10" y="12" width="12" height="12"/><path d="M6 8v20m20-20v20"/></g><text x="124" y="209" fill="#2d573e" font-size="23" font-weight="600" text-anchor="start">U1</text><text x="124" y="234" fill="#5b705f" font-size="16" font-weight="400" text-anchor="start">ESP32-WROOM-32U …</text><circle cx="420" cy="277" r="4" fill="#567260" stroke="#f5f7f2" stroke-width="1.5"/><text x="408" y="282" fill="#3b5846" font-size="15" font-weight="400" text-anchor="end">3V3_OUT</text><circle cx="420" cy="306" r="4" fill="#567260" stroke="#f5f7f2" stroke-width="1.5"/><text x="408" y="311" fill="#3b5846" font-size="15" font-weight="400" text-anchor="end">GND_VERIFIED</text><circle cx="420" cy="335" r="4" fill="#567260" stroke="#f5f7f2" stroke-width="1.5"/><text x="408" y="340" fill="#3b5846" font-size="15" font-weight="400" text-anchor="end">GPIO21</text><circle cx="420" cy="364" r="4" fill="#567260" stroke="#f5f7f2" stroke-width="1.5"/><text x="408" y="369" fill="#3b5846" font-size="15" font-weight="400" text-anchor="end">GPIO22</text><circle cx="420" cy="393" r="4" fill="#567260" stroke="#f5f7f2" stroke-width="1.5"/><text x="408" y="398" fill="#3b5846" font-size="15" font-weight="400" text-anchor="end">GPIO33</text></g><g class="node" data-node="RP_SDA" tabindex="0" role="button" aria-label="RP_SDA 풀업 SDA"><rect class="node-body" x="710" y="180" width="350" height="129" rx="7" fill="#fafbf7" stroke="#afc0b2" stroke-width="1.6"/><path d="M710 245H1060" stroke="#d6dfd5"/><g transform="translate(723 193)" fill="none" stroke="#5e7868" stroke-width="2.4"><rect x="2" y="5" width="28" height="25" rx="2"/><rect x="10" y="12" width="12" height="12"/><path d="M6 8v20m20-20v20"/></g><text x="764" y="209" fill="#2d573e" font-size="23" font-weight="600" text-anchor="start">RP_SDA</text><text x="764" y="234" fill="#5b705f" font-size="16" font-weight="400" text-anchor="start">풀업 SDA</text><circle cx="710" cy="277" r="4" fill="#567260" stroke="#f5f7f2" stroke-width="1.5"/><text x="722" y="282" fill="#3b5846" font-size="15" font-weight="400" text-anchor="start">1</text><circle cx="1060" cy="277" r="4" fill="#567260" stroke="#f5f7f2" stroke-width="1.5"/><text x="1048" y="282" fill="#3b5846" font-size="15" font-weight="400" text-anchor="end">2</text></g><g class="node" data-node="RP_SCL" tabindex="0" role="button" aria-label="RP_SCL 풀업 SCL"><rect class="node-body" x="1350" y="180" width="350" height="129" rx="7" fill="#fafbf7" stroke="#afc0b2" stroke-width="1.6"/><path d="M1350 245H1700" stroke="#d6dfd5"/><g transform="translate(1363 193)" fill="none" stroke="#5e7868" stroke-width="2.4"><rect x="2" y="5" width="28" height="25" rx="2"/><rect x="10" y="12" width="12" height="12"/><path d="M6 8v20m20-20v20"/></g><text x="1404" y="209" fill="#2d573e" font-size="23" font-weight="600" text-anchor="start">RP_SCL</text><text x="1404" y="234" fill="#5b705f" font-size="16" font-weight="400" text-anchor="start">풀업 SCL</text><circle cx="1350" cy="277" r="4" fill="#567260" stroke="#f5f7f2" stroke-width="1.5"/><text x="1362" y="282" fill="#3b5846" font-size="15" font-weight="400" text-anchor="start">1</text><circle cx="1700" cy="277" r="4" fill="#567260" stroke="#f5f7f2" stroke-width="1.5"/><text x="1688" y="282" fill="#3b5846" font-size="15" font-weight="400" text-anchor="end">2</text></g><g class="node" data-node="MUX1" tabindex="0" role="button" aria-label="MUX1 ToF I²C 멀티플렉서"><rect class="node-body" x="1990" y="180" width="350" height="303" rx="7" fill="#fafbf7" stroke="#afc0b2" stroke-width="1.6"/><path d="M1990 245H2340" stroke="#d6dfd5"/><g transform="translate(2003 193)" fill="none" stroke="#5e7868" stroke-width="2.4"><rect x="2" y="5" width="28" height="25" rx="2"/><rect x="10" y="12" width="12" height="12"/><path d="M6 8v20m20-20v20"/></g><text x="2044" y="209" fill="#2d573e" font-size="23" font-weight="600" text-anchor="start">MUX1</text><text x="2044" y="234" fill="#5b705f" font-size="16" font-weight="400" text-anchor="start">ToF I²C 멀티플렉서</text><circle cx="1990" cy="277" r="4" fill="#567260" stroke="#f5f7f2" stroke-width="1.5"/><text x="2002" y="282" fill="#3b5846" font-size="15" font-weight="400" text-anchor="start">VCC</text><circle cx="1990" cy="306" r="4" fill="#567260" stroke="#f5f7f2" stroke-width="1.5"/><text x="2002" y="311" fill="#3b5846" font-size="15" font-weight="400" text-anchor="start">GND</text><circle cx="1990" cy="335" r="4" fill="#567260" stroke="#f5f7f2" stroke-width="1.5"/><text x="2002" y="340" fill="#3b5846" font-size="15" font-weight="400" text-anchor="start">SDA</text><circle cx="1990" cy="364" r="4" fill="#567260" stroke="#f5f7f2" stroke-width="1.5"/><text x="2002" y="369" fill="#3b5846" font-size="15" font-weight="400" text-anchor="start">SCL</text><circle cx="1990" cy="393" r="4" fill="#567260" stroke="#f5f7f2" stroke-width="1.5"/><text x="2002" y="398" fill="#3b5846" font-size="15" font-weight="400" text-anchor="start">SD0</text><circle cx="1990" cy="422" r="4" fill="#567260" stroke="#f5f7f2" stroke-width="1.5"/><text x="2002" y="427" fill="#3b5846" font-size="15" font-weight="400" text-anchor="start">SC0</text><circle cx="1990" cy="451" r="4" fill="#567260" stroke="#f5f7f2" stroke-width="1.5"/><text x="2002" y="456" fill="#3b5846" font-size="15" font-weight="400" text-anchor="start">RESET</text><circle cx="2340" cy="277" r="4" fill="#567260" stroke="#f5f7f2" stroke-width="1.5"/><text x="2328" y="282" fill="#3b5846" font-size="15" font-weight="400" text-anchor="end">SD1</text><circle cx="2340" cy="306" r="4" fill="#567260" stroke="#f5f7f2" stroke-width="1.5"/><text x="2328" y="311" fill="#3b5846" font-size="15" font-weight="400" text-anchor="end">SC1</text><circle cx="2340" cy="335" r="4" fill="#567260" stroke="#f5f7f2" stroke-width="1.5"/><text x="2328" y="340" fill="#3b5846" font-size="15" font-weight="400" text-anchor="end">A0</text><circle cx="2340" cy="364" r="4" fill="#567260" stroke="#f5f7f2" stroke-width="1.5"/><text x="2328" y="369" fill="#3b5846" font-size="15" font-weight="400" text-anchor="end">A1</text><circle cx="2340" cy="393" r="4" fill="#567260" stroke="#f5f7f2" stroke-width="1.5"/><text x="2328" y="398" fill="#3b5846" font-size="15" font-weight="400" text-anchor="end">A2</text></g><g class="node" data-node="X3" tabindex="0" role="button" aria-label="X3 센서 3.3V/0V 분배"><rect class="node-body" x="70" y="680" width="350" height="332" rx="7" fill="#fafbf7" stroke="#afc0b2" stroke-width="1.6"/><path d="M70 745H420" stroke="#d6dfd5"/><g transform="translate(83 693)" fill="none" stroke="#5e7868" stroke-width="2.4"><rect x="2" y="5" width="28" height="25" rx="2"/><rect x="10" y="12" width="12" height="12"/><path d="M6 8v20m20-20v20"/></g><text x="124" y="709" fill="#2d573e" font-size="23" font-weight="600" text-anchor="start">X3</text><text x="124" y="734" fill="#5b705f" font-size="16" font-weight="400" text-anchor="start">센서 3.3V/0V 분배</text><circle cx="420" cy="777" r="4" fill="#567260" stroke="#f5f7f2" stroke-width="1.5"/><text x="408" y="782" fill="#3b5846" font-size="15" font-weight="400" text-anchor="end">3V3_IN</text><circle cx="420" cy="806" r="4" fill="#567260" stroke="#f5f7f2" stroke-width="1.5"/><text x="408" y="811" fill="#3b5846" font-size="15" font-weight="400" text-anchor="end">0V_IN</text><circle cx="420" cy="835" r="4" fill="#567260" stroke="#f5f7f2" stroke-width="1.5"/><text x="408" y="840" fill="#3b5846" font-size="15" font-weight="400" text-anchor="end">3V3_MUX</text><circle cx="420" cy="864" r="4" fill="#567260" stroke="#f5f7f2" stroke-width="1.5"/><text x="408" y="869" fill="#3b5846" font-size="15" font-weight="400" text-anchor="end">0V_MUX</text><circle cx="420" cy="893" r="4" fill="#567260" stroke="#f5f7f2" stroke-width="1.5"/><text x="408" y="898" fill="#3b5846" font-size="15" font-weight="400" text-anchor="end">3V3_T1</text><circle cx="420" cy="922" r="4" fill="#567260" stroke="#f5f7f2" stroke-width="1.5"/><text x="408" y="927" fill="#3b5846" font-size="15" font-weight="400" text-anchor="end">0V_T1</text><circle cx="420" cy="951" r="4" fill="#567260" stroke="#f5f7f2" stroke-width="1.5"/><text x="408" y="956" fill="#3b5846" font-size="15" font-weight="400" text-anchor="end">3V3_T2</text><circle cx="420" cy="980" r="4" fill="#567260" stroke="#f5f7f2" stroke-width="1.5"/><text x="408" y="985" fill="#3b5846" font-size="15" font-weight="400" text-anchor="end">0V_T2</text></g><g class="node" data-node="RP_RST" tabindex="0" role="button" aria-label="RP_RST 풀업 MUX_RST"><rect class="node-body" x="710" y="680" width="350" height="129" rx="7" fill="#fafbf7" stroke="#afc0b2" stroke-width="1.6"/><path d="M710 745H1060" stroke="#d6dfd5"/><g transform="translate(723 693)" fill="none" stroke="#5e7868" stroke-width="2.4"><rect x="2" y="5" width="28" height="25" rx="2"/><rect x="10" y="12" width="12" height="12"/><path d="M6 8v20m20-20v20"/></g><text x="764" y="709" fill="#2d573e" font-size="23" font-weight="600" text-anchor="start">RP_RST</text><text x="764" y="734" fill="#5b705f" font-size="16" font-weight="400" text-anchor="start">풀업 MUX_RST</text><circle cx="710" cy="777" r="4" fill="#567260" stroke="#f5f7f2" stroke-width="1.5"/><text x="722" y="782" fill="#3b5846" font-size="15" font-weight="400" text-anchor="start">1</text><circle cx="1060" cy="777" r="4" fill="#567260" stroke="#f5f7f2" stroke-width="1.5"/><text x="1048" y="782" fill="#3b5846" font-size="15" font-weight="400" text-anchor="end">2</text></g><g class="node" data-node="TOF1" tabindex="0" role="button" aria-label="TOF1 전방 ToF 1"><rect class="node-body" x="1350" y="680" width="350" height="158" rx="7" fill="#fafbf7" stroke="#afc0b2" stroke-width="1.6"/><path d="M1350 745H1700" stroke="#d6dfd5"/><g transform="translate(1363 693)" fill="none" stroke="#5e7868" stroke-width="2.4"><rect x="2" y="5" width="28" height="25" rx="2"/><rect x="10" y="12" width="12" height="12"/><path d="M6 8v20m20-20v20"/></g><text x="1404" y="709" fill="#2d573e" font-size="23" font-weight="600" text-anchor="start">TOF1</text><text x="1404" y="734" fill="#5b705f" font-size="16" font-weight="400" text-anchor="start">전방 ToF 1</text><circle cx="1350" cy="777" r="4" fill="#567260" stroke="#f5f7f2" stroke-width="1.5"/><text x="1362" y="782" fill="#3b5846" font-size="15" font-weight="400" text-anchor="start">VIN</text><circle cx="1350" cy="806" r="4" fill="#567260" stroke="#f5f7f2" stroke-width="1.5"/><text x="1362" y="811" fill="#3b5846" font-size="15" font-weight="400" text-anchor="start">GND</text><circle cx="1700" cy="777" r="4" fill="#567260" stroke="#f5f7f2" stroke-width="1.5"/><text x="1688" y="782" fill="#3b5846" font-size="15" font-weight="400" text-anchor="end">SDA</text><circle cx="1700" cy="806" r="4" fill="#567260" stroke="#f5f7f2" stroke-width="1.5"/><text x="1688" y="811" fill="#3b5846" font-size="15" font-weight="400" text-anchor="end">SCL</text></g><g class="node" data-node="TOF2" tabindex="0" role="button" aria-label="TOF2 전방 ToF 2"><rect class="node-body" x="1990" y="680" width="350" height="158" rx="7" fill="#fafbf7" stroke="#afc0b2" stroke-width="1.6"/><path d="M1990 745H2340" stroke="#d6dfd5"/><g transform="translate(2003 693)" fill="none" stroke="#5e7868" stroke-width="2.4"><rect x="2" y="5" width="28" height="25" rx="2"/><rect x="10" y="12" width="12" height="12"/><path d="M6 8v20m20-20v20"/></g><text x="2044" y="709" fill="#2d573e" font-size="23" font-weight="600" text-anchor="start">TOF2</text><text x="2044" y="734" fill="#5b705f" font-size="16" font-weight="400" text-anchor="start">전방 ToF 2</text><circle cx="1990" cy="777" r="4" fill="#567260" stroke="#f5f7f2" stroke-width="1.5"/><text x="2002" y="782" fill="#3b5846" font-size="15" font-weight="400" text-anchor="start">VIN</text><circle cx="1990" cy="806" r="4" fill="#567260" stroke="#f5f7f2" stroke-width="1.5"/><text x="2002" y="811" fill="#3b5846" font-size="15" font-weight="400" text-anchor="start">GND</text><circle cx="2340" cy="777" r="4" fill="#567260" stroke="#f5f7f2" stroke-width="1.5"/><text x="2328" y="782" fill="#3b5846" font-size="15" font-weight="400" text-anchor="end">SDA</text><circle cx="2340" cy="806" r="4" fill="#567260" stroke="#f5f7f2" stroke-width="1.5"/><text x="2328" y="811" fill="#3b5846" font-size="15" font-weight="400" text-anchor="end">SCL</text></g><text x="55" y="1205" fill="#997142" font-size="20" font-weight="400" text-anchor="start">HOLD · 극성/단자/정격/보호 협조/실측 승인 전 통전 금지 · 교차선은 접속점이 아님</text></svg>